<svg width="628" height="153" viewBox="0 0 628 153" fill="none" xmlns="http://www.w3.org/2000/svg">
<g filter="url(#filter0_d)">
<path d="M62.154 124C50.5454 124 40.3594 121.496 31.596 116.489C22.9465 111.481 16.2886 104.311 11.6224 94.9784C6.95615 85.646 4.62305 74.7202 4.62305 62.2011C4.62305 49.682 6.95615 38.8132 11.6224 29.5946C16.2886 20.2621 22.9465 13.0921 31.596 8.08447C40.3594 3.07682 50.5454 0.572998 62.154 0.572998C69.6655 0.572998 76.7217 1.7111 83.3227 3.98731C89.9237 6.1497 95.7849 9.33638 100.906 13.5473C102.386 14.6854 103.41 15.8805 103.979 17.1324C104.548 18.3843 104.833 19.9207 104.833 21.7417C104.833 24.2455 104.15 26.351 102.784 28.0581C101.419 29.7653 99.7683 30.6188 97.8335 30.6188C95.5573 30.6188 93.2242 29.8222 90.8342 28.2288C85.9403 24.5869 81.3879 22.0831 77.177 20.7174C72.966 19.2378 68.2998 18.4981 63.1783 18.4981C51.3421 18.4981 42.3511 22.1969 36.2053 29.5946C30.1734 36.9922 27.1574 47.8611 27.1574 62.2011C27.1574 76.655 30.1734 87.5808 36.2053 94.9784C42.3511 102.376 51.3421 106.075 63.1783 106.075C68.0722 106.075 72.5677 105.335 76.6648 103.856C80.8758 102.376 85.5989 99.8723 90.8342 96.3442C91.9723 95.6613 93.1104 95.0922 94.2485 94.637C95.3866 94.1818 96.5816 93.9541 97.8335 93.9541C99.7683 93.9541 101.419 94.8077 102.784 96.5149C104.15 98.222 104.833 100.328 104.833 102.831C104.833 104.538 104.548 106.075 103.979 107.441C103.41 108.693 102.386 109.888 100.906 111.026C95.7849 115.237 89.9237 118.48 83.3227 120.756C76.7217 122.919 69.6655 124 62.154 124Z" fill="#1A73E8"/>
<path d="M156.725 36.9353C168.333 36.9353 176.926 39.8375 182.503 45.6418C188.193 51.3323 191.039 60.0387 191.039 71.7612V113.416C191.039 116.489 190.128 118.935 188.307 120.756C186.486 122.464 183.982 123.317 180.796 123.317C177.837 123.317 175.39 122.407 173.455 120.586C171.634 118.765 170.723 116.375 170.723 113.416V109.66C168.789 114.099 165.716 117.57 161.505 120.074C157.408 122.577 152.628 123.829 147.165 123.829C141.588 123.829 136.524 122.691 131.971 120.415C127.419 118.139 123.834 115.009 121.216 111.026C118.598 107.042 117.29 102.604 117.29 97.7099C117.29 91.5641 118.826 86.7272 121.899 83.1991C125.086 79.671 130.207 77.1103 137.263 75.5169C144.32 73.9236 154.05 73.1269 166.456 73.1269H170.723V69.2005C170.723 63.6238 169.528 59.5835 167.138 57.0797C164.748 54.4621 160.879 53.1532 155.53 53.1532C152.229 53.1532 148.872 53.6654 145.458 54.6897C142.043 55.6002 138.003 56.9659 133.337 58.7868C130.378 60.2664 128.215 61.0061 126.85 61.0061C124.801 61.0061 123.094 60.2664 121.728 58.7868C120.476 57.3073 119.85 55.3725 119.85 52.9825C119.85 51.0478 120.306 49.3975 121.216 48.0318C122.24 46.5523 123.891 45.1865 126.167 43.9346C130.15 41.7722 134.873 40.0651 140.336 38.8132C145.913 37.5613 151.376 36.9353 156.725 36.9353ZM151.433 108.465C157.123 108.465 161.732 106.587 165.261 102.831C168.903 98.9618 170.723 94.011 170.723 87.9791V84.3941H167.651C160.025 84.3941 154.107 84.7355 149.896 85.4184C145.685 86.1013 142.669 87.2963 140.848 89.0034C139.027 90.7106 138.117 93.0437 138.117 96.0027C138.117 99.6446 139.369 102.661 141.873 105.051C144.49 107.327 147.677 108.465 151.433 108.465Z" fill="#1A73E8"/>
<path d="M259.331 37.2767C262.29 37.0491 264.623 37.6751 266.331 39.1546C268.038 40.6341 268.891 42.8534 268.891 45.8125C268.891 48.8854 268.152 51.1616 266.672 52.6411C265.193 54.1206 262.518 55.088 258.648 55.5433L253.527 56.0554C246.812 56.7383 241.861 59.0145 238.675 62.884C235.602 66.7535 234.065 71.5905 234.065 77.3948V113.245C234.065 116.545 233.041 119.106 230.993 120.927C228.944 122.634 226.383 123.488 223.31 123.488C220.238 123.488 217.677 122.634 215.628 120.927C213.693 119.106 212.726 116.545 212.726 113.245V47.1782C212.726 43.9915 213.693 41.5446 215.628 39.8375C217.677 38.1303 220.181 37.2767 223.14 37.2767C226.099 37.2767 228.489 38.1303 230.31 39.8375C232.131 41.4308 233.041 43.7639 233.041 46.8368V53.6654C235.204 48.6577 238.39 44.7882 242.601 42.0568C246.926 39.3253 251.706 37.7889 256.941 37.4475L259.331 37.2767Z" fill="#1A73E8"/>
<path d="M290.882 123.488C287.581 123.488 284.907 122.52 282.858 120.586C280.923 118.537 279.956 115.806 279.956 112.391V12.5231C279.956 9.22256 280.866 6.66184 282.687 4.84088C284.622 3.01992 287.24 2.10943 290.54 2.10943H332.536C345.397 2.10943 355.412 5.35302 362.582 11.8402C369.752 18.2136 373.337 27.2046 373.337 38.8132C373.337 50.4218 369.752 59.4697 362.582 65.9569C355.412 72.444 345.397 75.6876 332.536 75.6876H301.978V112.391C301.978 115.806 300.954 118.537 298.905 120.586C296.97 122.52 294.296 123.488 290.882 123.488ZM329.805 58.7868C344.941 58.7868 352.51 52.1859 352.51 38.9839C352.51 25.7819 344.941 19.1809 329.805 19.1809H301.978V58.7868H329.805Z" fill="#1A73E8"/>
<path d="M527.407 37.2767C530.366 37.0491 532.699 37.6751 534.407 39.1546C536.114 40.6341 536.967 42.8534 536.967 45.8125C536.967 48.8854 536.228 51.1616 534.748 52.6411C533.268 54.1206 530.594 55.088 526.724 55.5433L521.603 56.0554C514.888 56.7383 509.937 59.0145 506.751 62.884C503.678 66.7535 502.141 71.5905 502.141 77.3948V113.245C502.141 116.545 501.117 119.106 499.069 120.927C497.02 122.634 494.459 123.488 491.386 123.488C488.314 123.488 485.753 122.634 483.704 120.927C481.769 119.106 480.802 116.545 480.802 113.245V47.1782C480.802 43.9915 481.769 41.5446 483.704 39.8375C485.753 38.1303 488.257 37.2767 491.216 37.2767C494.175 37.2767 496.565 38.1303 498.386 39.8375C500.207 41.4308 501.117 43.7639 501.117 46.8368V53.6654C503.28 48.6577 506.466 44.7882 510.677 42.0568C515.002 39.3253 519.782 37.7889 525.017 37.4475L527.407 37.2767Z" fill="#1A73E8"/>
<path d="M620.415 105.904C622.691 108.067 623.829 110.514 623.829 113.245C623.829 115.863 622.862 118.196 620.927 120.244C619.106 122.293 616.944 123.317 614.44 123.317C611.936 123.317 609.603 122.293 607.441 120.244L567.493 84.0527V113.245C567.493 116.545 566.469 119.049 564.42 120.756C562.372 122.464 559.811 123.317 556.738 123.317C553.665 123.317 551.105 122.464 549.056 120.756C547.121 119.049 546.154 116.545 546.154 113.245V11.3281C546.154 8.02756 547.121 5.52374 549.056 3.81658C551.105 2.10943 553.665 1.25586 556.738 1.25586C559.811 1.25586 562.372 2.10943 564.42 3.81658C566.469 5.52374 567.493 8.02756 567.493 11.3281V75.5169L604.026 40.5203C606.075 38.4717 608.408 37.4475 611.026 37.4475C613.643 37.4475 615.92 38.4148 617.854 40.3496C619.789 42.2844 620.756 44.5606 620.756 47.1782C620.756 49.7958 619.675 52.1859 617.513 54.3482L590.711 79.2726L620.415 105.904Z" fill="#1A73E8"/>
<path fill-rule="evenodd" clip-rule="evenodd" d="M424.223 31.432C411.32 31.432 400.86 42.1809 400.86 55.4404C400.86 63.1643 404.404 70.0352 409.932 74.435L410.456 74.8519L410.852 75.3976C416.124 82.6552 421.741 92.0447 424.078 104.815C425.564 96.7074 429.298 87.4548 437.769 75.2916L438.169 74.718L438.707 74.2803C444.125 69.8748 447.587 63.0746 447.587 55.4404C447.587 42.1809 437.127 31.432 424.223 31.432ZM391.126 55.4404C391.126 36.6561 405.944 21.4285 424.223 21.4285C442.503 21.4285 457.321 36.6561 457.321 55.4404C457.321 65.9954 452.637 75.4291 445.307 81.6601C435.034 96.5633 433.151 105.704 432.961 113.524C432.846 118.261 429.157 122.464 424.163 122.464C419.284 122.464 415.624 118.438 415.359 113.817C414.548 99.6576 409.071 89.7678 403.426 81.9001C395.931 75.6725 391.126 66.1321 391.126 55.4404Z" fill="#FFC408"/>
<circle cx="424.224" cy="54.5262" r="12.1939" fill="#FFC408"/>
</g>
<defs>
<filter id="filter0_d" x="0.623047" y="0.572998" width="627.206" height="152.427" filterUnits="userSpaceOnUse" color-interpolation-filters="sRGB">
<feFlood flood-opacity="0" result="BackgroundImageFix"/>
<feColorMatrix in="SourceAlpha" type="matrix" values="0 0 0 0 0 0 0 0 0 0 0 0 0 0 0 0 0 0 127 0"/>
<feOffset dy="25"/>
<feGaussianBlur stdDeviation="2"/>
<feColorMatrix type="matrix" values="0 0 0 0 0 0 0 0 0 0 0 0 0 0 0 0 0 0 0.1 0"/>
<feBlend mode="normal" in2="BackgroundImageFix" result="effect1_dropShadow"/>
<feBlend mode="normal" in="SourceGraphic" in2="effect1_dropShadow" result="shape"/>
</filter>
</defs>
</svg>
