<svg width="620" height="124" viewBox="0 0 620 124" fill="none" xmlns="http://www.w3.org/2000/svg">
<path d="M58.154 124C46.5454 124 36.3594 121.496 27.596 116.489C18.9465 111.481 12.2886 104.311 7.62237 94.9784C2.95615 85.646 0.623047 74.7202 0.623047 62.2011C0.623047 49.682 2.95615 38.8132 7.62237 29.5946C12.2886 20.2621 18.9465 13.0921 27.596 8.08447C36.3594 3.07682 46.5454 0.572998 58.154 0.572998C65.6655 0.572998 72.7217 1.7111 79.3227 3.98731C85.9237 6.1497 91.7849 9.33638 96.9064 13.5473C98.3859 14.6854 99.4102 15.8805 99.9792 17.1324C100.548 18.3843 100.833 19.9207 100.833 21.7417C100.833 24.2455 100.15 26.351 98.7842 28.0581C97.4185 29.7653 95.7683 30.6188 93.8335 30.6188C91.5573 30.6188 89.2242 29.8222 86.8342 28.2288C81.9403 24.5869 77.3879 22.0831 73.177 20.7174C68.966 19.2378 64.2998 18.4981 59.1783 18.4981C47.3421 18.4981 38.3511 22.1969 32.2053 29.5946C26.1734 36.9922 23.1574 47.8611 23.1574 62.2011C23.1574 76.655 26.1734 87.5808 32.2053 94.9784C38.3511 102.376 47.3421 106.075 59.1783 106.075C64.0722 106.075 68.5677 105.335 72.6648 103.856C76.8758 102.376 81.5989 99.8723 86.8342 96.3442C87.9723 95.6613 89.1104 95.0922 90.2485 94.637C91.3866 94.1818 92.5816 93.9541 93.8335 93.9541C95.7683 93.9541 97.4185 94.8077 98.7842 96.5149C100.15 98.222 100.833 100.328 100.833 102.831C100.833 104.538 100.548 106.075 99.9792 107.441C99.4102 108.693 98.3859 109.888 96.9064 111.026C91.7849 115.237 85.9237 118.48 79.3227 120.756C72.7217 122.919 65.6655 124 58.154 124Z" fill="#1A73E8"/>
<path d="M152.725 36.9353C164.333 36.9353 172.926 39.8375 178.503 45.6418C184.193 51.3323 187.039 60.0387 187.039 71.7612V113.416C187.039 116.489 186.128 118.935 184.307 120.756C182.486 122.464 179.982 123.317 176.796 123.317C173.837 123.317 171.39 122.407 169.455 120.586C167.634 118.765 166.723 116.375 166.723 113.416V109.66C164.789 114.099 161.716 117.57 157.505 120.074C153.408 122.577 148.628 123.829 143.165 123.829C137.588 123.829 132.524 122.691 127.971 120.415C123.419 118.139 119.834 115.009 117.216 111.026C114.598 107.042 113.29 102.604 113.29 97.7099C113.29 91.5641 114.826 86.7272 117.899 83.1991C121.086 79.671 126.207 77.1103 133.263 75.5169C140.32 73.9236 150.05 73.1269 162.456 73.1269H166.723V69.2005C166.723 63.6238 165.528 59.5835 163.138 57.0797C160.748 54.4621 156.879 53.1532 151.53 53.1532C148.229 53.1532 144.872 53.6654 141.458 54.6897C138.043 55.6002 134.003 56.9659 129.337 58.7868C126.378 60.2664 124.215 61.0061 122.85 61.0061C120.801 61.0061 119.094 60.2664 117.728 58.7868C116.476 57.3073 115.85 55.3725 115.85 52.9825C115.85 51.0478 116.306 49.3975 117.216 48.0318C118.24 46.5523 119.891 45.1865 122.167 43.9346C126.15 41.7722 130.873 40.0651 136.336 38.8132C141.913 37.5613 147.376 36.9353 152.725 36.9353ZM147.433 108.465C153.123 108.465 157.732 106.587 161.261 102.831C164.903 98.9618 166.723 94.011 166.723 87.9791V84.3941H163.651C156.025 84.3941 150.107 84.7355 145.896 85.4184C141.685 86.1013 138.669 87.2963 136.848 89.0034C135.027 90.7106 134.117 93.0437 134.117 96.0027C134.117 99.6446 135.369 102.661 137.873 105.051C140.49 107.327 143.677 108.465 147.433 108.465Z" fill="#1A73E8"/>
<path d="M255.331 37.2767C258.29 37.0491 260.623 37.6751 262.331 39.1546C264.038 40.6341 264.891 42.8534 264.891 45.8125C264.891 48.8854 264.152 51.1616 262.672 52.6411C261.193 54.1206 258.518 55.088 254.648 55.5433L249.527 56.0554C242.812 56.7383 237.861 59.0145 234.675 62.884C231.602 66.7535 230.065 71.5905 230.065 77.3948V113.245C230.065 116.545 229.041 119.106 226.993 120.927C224.944 122.634 222.383 123.488 219.31 123.488C216.238 123.488 213.677 122.634 211.628 120.927C209.693 119.106 208.726 116.545 208.726 113.245V47.1782C208.726 43.9915 209.693 41.5446 211.628 39.8375C213.677 38.1303 216.181 37.2767 219.14 37.2767C222.099 37.2767 224.489 38.1303 226.31 39.8375C228.131 41.4308 229.041 43.7639 229.041 46.8368V53.6654C231.204 48.6577 234.39 44.7882 238.601 42.0568C242.926 39.3253 247.706 37.7889 252.941 37.4475L255.331 37.2767Z" fill="#1A73E8"/>
<path d="M286.882 123.488C283.581 123.488 280.907 122.52 278.858 120.586C276.923 118.537 275.956 115.806 275.956 112.391V12.5231C275.956 9.22256 276.866 6.66184 278.687 4.84088C280.622 3.01992 283.24 2.10943 286.54 2.10943H328.536C341.397 2.10943 351.412 5.35302 358.582 11.8402C365.752 18.2136 369.337 27.2046 369.337 38.8132C369.337 50.4218 365.752 59.4697 358.582 65.9569C351.412 72.444 341.397 75.6876 328.536 75.6876H297.978V112.391C297.978 115.806 296.954 118.537 294.905 120.586C292.97 122.52 290.296 123.488 286.882 123.488ZM325.805 58.7868C340.941 58.7868 348.51 52.1859 348.51 38.9839C348.51 25.7819 340.941 19.1809 325.805 19.1809H297.978V58.7868H325.805Z" fill="#1A73E8"/>
<path d="M523.407 37.2767C526.366 37.0491 528.699 37.6751 530.407 39.1546C532.114 40.6341 532.967 42.8534 532.967 45.8125C532.967 48.8854 532.228 51.1616 530.748 52.6411C529.268 54.1206 526.594 55.088 522.724 55.5433L517.603 56.0554C510.888 56.7383 505.937 59.0145 502.751 62.884C499.678 66.7535 498.141 71.5905 498.141 77.3948V113.245C498.141 116.545 497.117 119.106 495.069 120.927C493.02 122.634 490.459 123.488 487.386 123.488C484.314 123.488 481.753 122.634 479.704 120.927C477.769 119.106 476.802 116.545 476.802 113.245V47.1782C476.802 43.9915 477.769 41.5446 479.704 39.8375C481.753 38.1303 484.257 37.2767 487.216 37.2767C490.175 37.2767 492.565 38.1303 494.386 39.8375C496.207 41.4308 497.117 43.7639 497.117 46.8368V53.6654C499.28 48.6577 502.466 44.7882 506.677 42.0568C511.002 39.3253 515.782 37.7889 521.017 37.4475L523.407 37.2767Z" fill="#1A73E8"/>
<path d="M616.415 105.904C618.691 108.067 619.829 110.514 619.829 113.245C619.829 115.863 618.862 118.196 616.927 120.244C615.106 122.293 612.944 123.317 610.44 123.317C607.936 123.317 605.603 122.293 603.441 120.244L563.493 84.0527V113.245C563.493 116.545 562.469 119.049 560.42 120.756C558.372 122.464 555.811 123.317 552.738 123.317C549.665 123.317 547.105 122.464 545.056 120.756C543.121 119.049 542.154 116.545 542.154 113.245V11.3281C542.154 8.02756 543.121 5.52374 545.056 3.81658C547.105 2.10943 549.665 1.25586 552.738 1.25586C555.811 1.25586 558.372 2.10943 560.42 3.81658C562.469 5.52374 563.493 8.02756 563.493 11.3281V75.5169L600.026 40.5203C602.075 38.4717 604.408 37.4475 607.026 37.4475C609.643 37.4475 611.92 38.4148 613.854 40.3496C615.789 42.2844 616.756 44.5606 616.756 47.1782C616.756 49.7958 615.675 52.1859 613.513 54.3482L586.711 79.2726L616.415 105.904Z" fill="#1A73E8"/>
</svg>
